HIERARCHY
ROOT Hips
{
    OFFSET   0.000000   0.000000   0.000000
    CHANNELS 6 Xposition Yposition Zposition Zrotation Xrotation Yrotation
    JOINT Chest
    {
        OFFSET   0.000000   8.007230   0.000000
        CHANNELS 3 Zrotation Xrotation Yrotation
        JOINT Chest2
        {
            OFFSET   0.000000  22.077100   0.000000
            CHANNELS 3 Zrotation Xrotation Yrotation
            JOINT Neck
            {
                OFFSET   0.000000  23.254700   0.000000
                CHANNELS 3 Zrotation Xrotation Yrotation
                JOINT Head
                {
                    OFFSET   0.000010  14.370000   1.956610
                    CHANNELS 3 Zrotation Xrotation Yrotation
                    End Site
                    {
                        OFFSET   0.000000  19.566000   0.000000
                    }
                }
            }
            JOINT LeftCollar
            {
                OFFSET   3.911900  19.017000  -0.467063
                CHANNELS 3 Zrotation Xrotation Yrotation
                JOINT LeftShoulder
                {
                    OFFSET  10.383700   0.000000   0.000000
                    CHANNELS 3 Zrotation Xrotation Yrotation
                    JOINT LeftElbow
                    {
                        OFFSET  26.662100   0.001671   0.000522
                        CHANNELS 3 Zrotation Xrotation Yrotation
                        JOINT LeftWrist
                        {
                            OFFSET  28.869000   0.000037  -0.000114
                            CHANNELS 3 Zrotation Xrotation Yrotation
                            JOINT LeftFinger0
                            {
                                OFFSET   2.044650  -2.323450   3.252850
                                CHANNELS 3 Zrotation Xrotation Yrotation
                                JOINT LeftFinger01
                                {
                                    OFFSET   3.088140   0.000000   0.000000
                                    CHANNELS 3 Zrotation Xrotation Yrotation
                                    JOINT LeftFinger02
                                    {
                                        OFFSET   2.639460   0.000000   0.000000
                                        CHANNELS 3 Zrotation Xrotation Yrotation
                                        End Site
                                        {
                                            OFFSET   2.582190   0.000000   0.000000
                                        }
                                    }
                                }
                            }
                            JOINT LeftFinger1
                            {
                                OFFSET   8.364480   0.000000   3.252850
                                CHANNELS 3 Zrotation Xrotation Yrotation
                                JOINT LeftFinger11
                                {
                                    OFFSET   4.646930   0.000000   0.000000
                                    CHANNELS 3 Zrotation Xrotation Yrotation
                                    JOINT LeftFinger12
                                    {
                                        OFFSET   2.323470   0.000000   0.000000
                                        CHANNELS 3 Zrotation Xrotation Yrotation
                                        End Site
                                        {
                                            OFFSET   2.273050   0.000000   0.000000
                                        }
                                    }
                                }
                            }
                            JOINT LeftFinger2
                            {
                                OFFSET   8.364490   0.000016   1.078090
                                CHANNELS 3 Zrotation Xrotation Yrotation
                                JOINT LeftFinger21
                                {
                                    OFFSET   5.111620   0.000000   0.000000
                                    CHANNELS 3 Zrotation Xrotation Yrotation
                                    JOINT LeftFinger22
                                    {
                                        OFFSET   2.788150   0.000013   0.000000
                                        CHANNELS 3 Zrotation Xrotation Yrotation
                                        End Site
                                        {
                                            OFFSET   2.727660   0.000000   0.000000
                                        }
                                    }
                                }
                            }
                            JOINT LeftFinger3
                            {
                                OFFSET   7.899780   0.000016  -1.078090
                                CHANNELS 3 Zrotation Xrotation Yrotation
                                JOINT LeftFinger31
                                {
                                    OFFSET   4.646930   0.000000   0.000000
                                    CHANNELS 3 Zrotation Xrotation Yrotation
                                    JOINT LeftFinger32
                                    {
                                        OFFSET   2.323470   0.000000   0.000000
                                        CHANNELS 3 Zrotation Xrotation Yrotation
                                        End Site
                                        {
                                            OFFSET   2.273050   0.000000   0.000000
                                        }
                                    }
                                }
                            }
                            JOINT LeftFinger4
                            {
                                OFFSET   7.435080   0.000000  -3.252850
                                CHANNELS 3 Zrotation Xrotation Yrotation
                                JOINT LeftFinger41
                                {
                                    OFFSET   3.717550   0.000000   0.000000
                                    CHANNELS 3 Zrotation Xrotation Yrotation
                                    JOINT LeftFinger42
                                    {
                                        OFFSET   1.858760   0.000000   0.000000
                                        CHANNELS 3 Zrotation Xrotation Yrotation
                                        End Site
                                        {
                                            OFFSET   1.818440   0.000000   0.000000
                                        }
                                    }
                                }
                            }
                        }
                    }
                }
            }
            JOINT RightCollar
            {
                OFFSET  -3.911900  19.017000  -0.467064
                CHANNELS 3 Zrotation Xrotation Yrotation
                JOINT RightShoulder
                {
                    OFFSET -10.383700   0.000000   0.000000
                    CHANNELS 3 Zrotation Xrotation Yrotation
                    JOINT RightElbow
                    {
                        OFFSET -26.662100   0.001633   0.000260
                        CHANNELS 3 Zrotation Xrotation Yrotation
                        JOINT RightWrist
                        {
                            OFFSET -28.869000  -0.000045  -0.000080
                            CHANNELS 3 Zrotation Xrotation Yrotation
                            JOINT RightFinger0
                            {
                                OFFSET  -2.044660  -2.323490   3.252850
                                CHANNELS 3 Zrotation Xrotation Yrotation
                                JOINT RightFinger01
                                {
                                    OFFSET  -3.088140   0.000000   0.000000
                                    CHANNELS 3 Zrotation Xrotation Yrotation
                                    JOINT RightFinger02
                                    {
                                        OFFSET  -2.639450   0.000000   0.000000
                                        CHANNELS 3 Zrotation Xrotation Yrotation
                                        End Site
                                        {
                                            OFFSET  -2.582190   0.000000   0.000000
                                        }
                                    }
                                }
                            }
                            JOINT RightFinger1
                            {
                                OFFSET  -8.364480   0.000000   3.252850
                                CHANNELS 3 Zrotation Xrotation Yrotation
                                JOINT RightFinger11
                                {
                                    OFFSET  -4.646920   0.000000   0.000000
                                    CHANNELS 3 Zrotation Xrotation Yrotation
                                    JOINT RightFinger12
                                    {
                                        OFFSET  -2.323470   0.000000   0.000000
                                        CHANNELS 3 Zrotation Xrotation Yrotation
                                        End Site
                                        {
                                            OFFSET  -2.273050   0.000000   0.000000
                                        }
                                    }
                                }
                            }
                            JOINT RightFinger2
                            {
                                OFFSET  -8.364480   0.000000   1.078090
                                CHANNELS 3 Zrotation Xrotation Yrotation
                                JOINT RightFinger21
                                {
                                    OFFSET  -5.111610   0.000000   0.000000
                                    CHANNELS 3 Zrotation Xrotation Yrotation
                                    JOINT RightFinger22
                                    {
                                        OFFSET  -2.788160   0.000000   0.000000
                                        CHANNELS 3 Zrotation Xrotation Yrotation
                                        End Site
                                        {
                                            OFFSET  -2.727660   0.000000   0.000000
                                        }
                                    }
                                }
                            }
                            JOINT RightFinger3
                            {
                                OFFSET  -7.899780   0.000000  -1.078090
                                CHANNELS 3 Zrotation Xrotation Yrotation
                                JOINT RightFinger31
                                {
                                    OFFSET  -4.646930   0.000000   0.000000
                                    CHANNELS 3 Zrotation Xrotation Yrotation
                                    JOINT RightFinger32
                                    {
                                        OFFSET  -2.323470   0.000000   0.000000
                                        CHANNELS 3 Zrotation Xrotation Yrotation
                                        End Site
                                        {
                                            OFFSET  -2.273050   0.000000   0.000000
                                        }
                                    }
                                }
                            }
                            JOINT RightFinger4
                            {
                                OFFSET  -7.435090   0.000000  -3.252850
                                CHANNELS 3 Zrotation Xrotation Yrotation
                                JOINT RightFinger41
                                {
                                    OFFSET  -3.717550   0.000000   0.000000
                                    CHANNELS 3 Zrotation Xrotation Yrotation
                                    JOINT RightFinger42
                                    {
                                        OFFSET  -1.858760   0.000000   0.000000
                                        CHANNELS 3 Zrotation Xrotation Yrotation
                                        End Site
                                        {
                                            OFFSET  -1.818440   0.000000   0.000000
                                        }
                                    }
                                }
                            }
                        }
                    }
                }
            }
        }
    }
    JOINT LeftHip
    {
        OFFSET   9.782990   0.000000   0.000000
        CHANNELS 3 Zrotation Xrotation Yrotation
        JOINT LeftKnee
        {
            OFFSET  -0.000063 -41.789100   0.001657
            CHANNELS 3 Zrotation Xrotation Yrotation
            JOINT LeftAnkle
            {
                OFFSET   0.000078 -41.133200  -0.000113
                CHANNELS 3 Zrotation Xrotation Yrotation
                JOINT LeftToe
                {
                    OFFSET   0.000000  -6.358970  14.674500
                    CHANNELS 3 Zrotation Xrotation Yrotation
                    End Site
                    {
                        OFFSET   0.000000   0.000000   3.913200
                    }
                }
            }
        }
    }
    JOINT RightHip
    {
        OFFSET  -9.782990   0.000000   0.000000
        CHANNELS 3 Zrotation Xrotation Yrotation
        JOINT RightKnee
        {
            OFFSET   0.000053 -41.789200   0.000277
            CHANNELS 3 Zrotation Xrotation Yrotation
            JOINT RightAnkle
            {
                OFFSET   0.000030 -41.133200  -0.000150
                CHANNELS 3 Zrotation Xrotation Yrotation
                JOINT RightToe
                {
                    OFFSET   0.000000  -6.358960  14.674500
                    CHANNELS 3 Zrotation Xrotation Yrotation
                    End Site
                    {
                        OFFSET   0.000000   0.000000   3.913200
                    }
                }
            }
        }
    }
}
MOTION
Frames: 4
Frame Time:   0.016667
 -0.726860  89.345200   1.916440  -4.794140 -14.904900  -3.485370  -0.918891   9.536970   4.116240  -2.595480  18.979300   8.570220   4.133430  -2.403140   0.176024   6.823890  -4.796170  -3.361480  -3.926650  -3.502470   0.794513 -68.706900  19.498900  -8.386220  -0.399558  -1.465030 -18.733600  10.878600  -3.607860   4.982620  42.039800  38.812500 -69.728200 -32.644000   0.000000   0.000113 -11.322000   0.002980   0.000000 -30.696600   4.774260  -7.980940 -25.388800   0.002082   0.006113 -17.772100  -0.002747   0.003405 -28.137900  -2.339520   4.364580 -33.622900   0.002131  -0.000156 -22.392800  -0.003625   0.000599 -27.746100  -2.309580   4.380470 -30.985800   0.000819  -0.000252 -20.636500   0.001134   0.003464 -28.457500  -2.364050   4.351300 -42.822000   0.000849  -0.000260 -28.519500   0.000578   0.000447   6.392080  -2.767610   8.415290  17.523900 -30.202700  27.940600 -15.959800 -13.571100   0.000351 -19.114500 -67.215200  -5.098630 -54.572800  35.370000  66.383800   0.313415   0.000246   0.000136  -4.843300   0.000269   0.003811  26.295100   0.753128   1.522440  21.522400   0.001941  -0.002532  15.065700  -0.001031  -0.001512  28.477800  -3.914970  -7.173910  39.599000  -0.000535   0.005138  26.372900  -0.000252  -0.000089  21.900900  -3.123450  -7.721620  22.112200  -0.003756   0.001044  14.726700  -0.001140   0.001051  17.718800  -2.549740  -7.929190  26.843900  -0.005331   0.006470  17.878000  -0.003340   0.005143   5.244540  19.036000   5.720850   1.148330   0.021381   1.686870  -2.025040  -4.580000   1.007180  -0.000000   0.000000   0.000000   4.915050  17.192900  -0.075164   0.122787   3.241940  -8.650620  -1.238070  -5.478920  -1.025320   0.000000   0.000000   0.000000
 -0.759242  89.341400   1.936550  -4.801970 -14.841700  -3.611680  -0.896098   9.522050   4.106290  -2.545410  18.951600   8.543090   4.144870  -2.397170   0.176135   6.857680  -4.784630  -2.987700  -3.939040  -3.486810   0.802219 -68.704600  19.545400  -8.390860  -0.486389  -1.581930 -18.357800  10.870500  -3.514920   4.977760  41.969400  38.713300 -69.680300 -32.591200   0.000000   0.000057 -11.295600   0.002947   0.000000 -30.678600   4.829540  -8.077280 -25.372300   0.002290   0.006227 -17.760600  -0.002799   0.003685 -28.143900  -2.285400   4.262830 -33.644800   0.002057  -0.000156 -22.407400  -0.003601   0.000547 -27.748600  -2.256020   4.278430 -30.990800   0.000797  -0.000253 -20.639900   0.001116   0.003429 -28.421900  -2.307670   4.250810 -42.768000   0.000849  -0.000261 -28.483500   0.000577   0.000400   6.368680  -2.697370   8.417400  17.818300 -30.445800  27.943300 -15.958400 -13.829000   0.000210 -19.117400 -67.480700  -5.087000 -54.868100  35.583000  66.612900   0.098620   0.000231   0.000068  -4.950700   0.000165   0.003749  25.813400   0.725806   1.521110  21.128100   0.001722  -0.002372  14.789600  -0.001013  -0.001382  28.454400  -3.937060  -7.220660  39.104400  -0.000544   0.005466  26.043500  -0.000254  -0.000133  21.420300  -3.077650  -7.793390  21.629900  -0.003650   0.000977  14.405500  -0.001133   0.000994  17.384900  -2.518860  -7.990740  26.341300  -0.005138   0.006181  17.543300  -0.003219   0.004937   5.234030  19.009800   5.702230   1.145900   0.026534   1.768690  -2.052900  -4.591980   1.078020   0.000000   0.000000   0.000000   4.873060  17.161300  -0.085892   0.144277   3.203280  -8.595080  -1.230270  -5.469350  -0.935514  -0.000000   0.000000   0.000000
 -0.794343  89.340200   1.953280  -4.813600 -14.781500  -3.748520  -0.878177   9.507580   4.104720  -2.507770  18.924100   8.538000   4.176730  -2.388810   0.176330   6.895100  -4.766630  -2.704130  -3.949690  -3.471740   0.805365 -68.701400  19.596800  -8.409020  -0.547210  -1.730110 -17.952800  10.865700  -3.454270   4.962780  41.943200  38.604300 -69.700100 -32.495000   0.000000   0.000000 -11.247500   0.002910  -0.000000 -30.648600   4.930670  -8.253110 -25.367400   0.002495   0.006340 -17.757200  -0.002849   0.003964 -28.157200  -2.188870   4.081500 -33.681100   0.001984  -0.000157 -22.431600  -0.003579   0.000497 -27.760700  -2.160540   4.096560 -31.001200   0.000776  -0.000253 -20.646800   0.001097   0.003396 -28.422900  -2.207700   4.071390 -42.752100   0.000850  -0.000261 -28.472900   0.000577   0.000354   6.345840  -2.640090   8.418190  17.987900 -30.641100  27.944700 -15.948300 -13.986900  -0.000000 -19.180800 -67.651600  -5.114100 -55.286500  35.904900  67.072900   0.000309   0.000215   0.000000  -4.999860   0.000059   0.003689  25.438500   0.721903   1.520920  20.820700   0.001505  -0.002200  14.574400  -0.000992  -0.001248  28.443000  -3.947110  -7.242120  38.878400  -0.000550   0.005788  25.893000  -0.000256  -0.000175  21.173500  -3.045500  -7.809680  21.381000  -0.003534   0.000908  14.239800  -0.001123   0.000937  17.220400  -2.496870  -8.000890  26.092100  -0.004943   0.005895  17.377300  -0.003096   0.004736   5.218940  18.979800   5.685900   1.145070   0.041062   1.857370  -2.077770  -4.605540   1.151510   0.000000   0.000000   0.000000   4.830760  17.132100  -0.099474   0.165399   3.160410  -8.550020  -1.220050  -5.452850  -0.820578  -0.000000   0.000000   0.000000
 -0.828817  89.340100   1.965230  -4.818870 -14.729100  -3.877090  -0.864978   9.498520   4.107110  -2.480510  18.906900   8.540310   4.231330  -2.386120   0.176678   6.978880  -4.759400  -2.518180  -3.960960  -3.457930   0.813281 -68.683300  19.647200  -8.475730  -0.593276  -1.917290 -17.565000  10.866500  -3.395330   4.932470  41.963100  38.562300 -69.782700 -32.397900   0.000000   0.000068 -11.199000   0.002881  -0.000000 -30.624800   5.034610  -8.432260 -25.360900   0.002693   0.006444 -17.752700  -0.002892   0.004245 -28.167700  -2.094890   3.905130 -33.717000   0.001913  -0.000156 -22.455500  -0.003560   0.000447 -27.769900  -2.067700   3.919600 -31.017400   0.000757  -0.000253 -20.657600   0.001076   0.003363 -28.414400  -2.111760   3.896090 -42.729400   0.000849  -0.000261 -28.457800   0.000578   0.000308   6.327230  -2.604150   8.422470  18.050600 -30.804400  27.913100 -15.901700 -13.864400  -0.000133 -19.793100 -67.653800  -5.609070 -55.442900  36.197400  67.694700   0.181727   0.000211   0.000070  -4.909140  -0.000046   0.003622  25.298500   0.738384   1.558960  20.706600   0.001286  -0.002002  14.494600  -0.000954  -0.001117  28.454800  -3.936990  -7.220320  39.107400  -0.000536   0.006110  26.045500  -0.000249  -0.000210  21.319300  -3.049840  -7.771720  21.527100  -0.003411   0.000840  14.337100  -0.001114   0.000898  17.343300  -2.501320  -7.964870  26.276900  -0.004747   0.005621  17.500400  -0.002960   0.004542   5.190210  18.945000   5.676330   1.152920   0.064555   1.948830  -2.097670  -4.617970   1.211020  -0.000000   0.000000   0.000000   4.790800  17.108700  -0.124949   0.181556   3.118110  -8.523080  -1.207960  -5.438040  -0.685211   0.000000   0.000000   0.000000
